<svg width="34" height="34" viewBox="0 0 34 34" fill="none" xmlns="http://www.w3.org/2000/svg">
<path d="M17.0002 31.1666C24.8241 31.1666 31.1668 24.8239 31.1668 17C31.1668 9.17594 24.8241 2.83331 17.0002 2.83331C9.17613 2.83331 2.8335 9.17594 2.8335 17C2.8335 24.8239 9.17613 31.1666 17.0002 31.1666Z" stroke="white" stroke-width="1.5" stroke-linecap="round" stroke-linejoin="round"/>
<path d="M3.5415 17.7083L11.3332 20.5416L9.9165 25.5L11.3332 29.75" stroke="white" stroke-width="1.5" stroke-linecap="round" stroke-linejoin="round"/>
<path d="M24.0835 29.0416L23.3752 25.5L19.8335 24.0833V19.125L24.0835 17.7083L30.4585 18.4166" stroke="white" stroke-width="1.5" stroke-linecap="round" stroke-linejoin="round"/>
<path d="M26.9167 7.79169L26.2083 9.91669L21.25 10.625V14.875L24.7917 13.4584H27.625L30.4583 14.875" stroke="white" stroke-width="1.5" stroke-linecap="round" stroke-linejoin="round"/>
<path d="M3.5415 14.875L7.08317 12.0417L10.6248 11.3333L13.4582 7.08333L12.0415 4.25" stroke="white" stroke-width="1.5" stroke-linecap="round" stroke-linejoin="round"/>
</svg>
