<svg width="41" height="41" viewBox="0 0 41 41" fill="none" xmlns="http://www.w3.org/2000/svg">
<path d="M7.29659 12.6972L20.5639 19.5262C20.6088 19.5483 20.6581 19.5597 20.7081 19.5597C20.7581 19.5597 20.8074 19.5483 20.8522 19.5262L34.7282 12.6908C34.7806 12.6639 34.8247 12.623 34.8554 12.5727C34.8862 12.5224 34.9024 12.4646 34.9024 12.4057C34.9024 12.3467 34.8862 12.2889 34.8554 12.2386C34.8247 12.1883 34.7806 12.1475 34.7282 12.1206L21.6017 5.41326C21.4213 5.32104 21.2215 5.27295 21.0188 5.27295C20.8161 5.27295 20.6163 5.32104 20.4358 5.41326L7.303 12.127C7.25022 12.1533 7.20573 12.1936 7.17441 12.2436C7.14309 12.2935 7.12617 12.3512 7.12551 12.4101C7.12485 12.4691 7.14047 12.5271 7.17065 12.5777C7.20084 12.6284 7.24442 12.6697 7.29659 12.6972Z" stroke="white" stroke-width="2" stroke-linecap="round"/>
<path d="M6.93799 20.6473L20.5641 27.6942H20.8524L35.1063 20.6473" stroke="white" stroke-width="2" stroke-linecap="round"/>
<path d="M6.93799 28.7897L20.5641 35.8365H20.8524L35.1063 28.7897" stroke="white" stroke-width="2" stroke-linecap="round"/>
</svg>
